<svg xmlns="http://www.w3.org/2000/svg" viewBox="339 470 20 20" width="20" height="20">
  <path fill="white" d="m 352.72656,472.9707 c -0.84514,-0.0154 -1.69148,0.28718 -2.33008,0.92578 l -2.13476,2.13477 c -1.14247,-0.0826 -2.16028,-0.0359 -2.98047,0.30273 -0.89973,0.37145 -1.59595,1.03428 -2.08008,1.92774 C 342.23291,480.04863 342,482.7268 342,486.5 a 0.50004997,0.50004997 0 0 0 0.5,0.5 c 3.7729,0 6.45106,-0.23075 8.23828,-1.19727 0.89361,-0.48326 1.5563,-1.17766 1.92774,-2.07812 0.33865,-0.82099 0.38541,-1.84087 0.30273,-2.98633 l 2.13477,-2.13476 c 1.27714,-1.27719 1.21033,-3.38733 -0.0547,-4.65235 -0.63251,-0.63254 -1.47713,-0.96507 -2.32227,-0.98047 z m -0.01,1.00391 c 0.59016,0.0124 1.18356,0.24213 1.625,0.68359 0.88286,0.88287 0.92532,2.36759 0.0547,3.23828 l -2.25,2.25 a 0.50004997,0.50004997 0 0 0 -0.14453,0.4043 c 0.11985,1.19116 0.0231,2.10252 -0.26172,2.79297 -0.28481,0.69045 -0.74712,1.18455 -1.47851,1.58008 -1.27506,0.68955 -3.50366,0.96361 -6.50586,1.02734 l 3.10352,-3.10351 c 0.19538,0.094 0.41106,0.15234 0.64062,0.15234 0.8225,0 1.5,-0.6775 1.5,-1.5 0,-0.8225 -0.6775,-1.5 -1.5,-1.5 -0.8225,0 -1.5,0.6775 -1.5,1.5 0,0.22956 0.0584,0.44524 0.15234,0.64062 l -3.10351,3.10352 c 0.0645,-3.00197 0.34215,-5.23052 1.0332,-6.50586 0.3964,-0.73154 0.8902,-1.19371 1.58008,-1.47851 0.68987,-0.28481 1.59959,-0.38153 2.78711,-0.26172 a 0.50004997,0.50004997 0 0 0 0.4043,-0.14453 l 2.25,-2.25 c 0.43534,-0.43536 1.02312,-0.64126 1.61328,-0.62891 z"/>
  <path fill="white" d="m 353.13867,473.0332 c -0.49613,-0.0451 -1.03862,0.15972 -1.49219,0.61328 l -0.75,0.75 c -0.19519,0.19527 -0.19519,0.51177 0,0.70704 l 3,3 c 0.19527,0.19519 0.51177,0.19519 0.70704,0 l 0.75,-0.75 c 0.45356,-0.45357 0.65838,-0.99606 0.61328,-1.49219 -0.0451,-0.49613 -0.30436,-0.90592 -0.61328,-1.21485 l -1,-1 c -0.30893,-0.30892 -0.71872,-0.56817 -1.21485,-0.61328 z m -3.39644,2.7168 c -0.12989,0.002 -0.25387,0.0546 -0.34571,0.14648 l -6.25,6.25 c -0.0639,0.0642 -0.10909,0.14453 -0.13086,0.23243 l -1,4 c -0.0904,0.36537 0.2401,0.69582 0.60547,0.60547 l 4,-1 c 0.0879,-0.0218 0.16823,-0.067 0.23243,-0.13086 l 6.25,-6.25 c 0.19519,-0.19527 0.19519,-0.51177 0,-0.70704 l -3,-3 c -0.0957,-0.0957 -0.22605,-0.14856 -0.36137,-0.14648 z"/>
</svg>
